<svg width="50" height="50" viewBox="0 0 50 50" fill="none" xmlns="http://www.w3.org/2000/svg">
    <g clip-path="url(#clip0_2968_373)">
        <path fill-rule="evenodd" clip-rule="evenodd" d="M14.628 -0.0342369L35.3515 0.00681961L49.9431 14.3629L49.8469 35.2196L35.53 49.8836L14.5731 49.8836L0.132584 35.1786L0.132584 14.1987L14.628 -0.0342369Z" fill="#FEFEFE"/>
        <path d="M25.834 19.5566C25.2091 19.9466 24.7285 20.5077 24.2821 21.0894C23.9869 21.5273 23.7465 21.9994 23.5405 22.4853C23.4993 22.6153 23.4581 22.7385 23.4169 22.8616C23.3826 22.9916 23.3414 23.1148 23.3002 23.2448C23.2659 23.4501 23.2247 23.6622 23.156 23.8607C23.1079 24.5381 23.1079 25.2155 23.156 25.8861C23.2247 26.0846 23.2659 26.2898 23.3002 26.502C23.3414 26.6251 23.3826 26.7551 23.4169 26.8852C23.4581 27.0083 23.4993 27.1383 23.5405 27.2684C24.0967 28.6643 25.1061 29.9233 26.4795 30.5871C26.6648 30.676 26.8434 30.7718 27.0425 30.8266C27.8665 31.0592 28.7042 31.2782 29.5694 31.3193C29.6175 30.6213 29.6175 29.9165 29.5763 29.2185C28.5944 28.9927 27.5918 28.678 26.8228 28.0005C25.3533 26.7209 25.1405 24.3876 26.04 22.7248C26.7335 21.452 28.1549 20.7404 29.5694 20.5898C29.6312 19.8303 29.6244 19.0707 29.5763 18.3112C28.2373 18.3386 26.9464 18.8312 25.8271 19.5566H25.834ZM13.2543 18.4891L15.5478 18.4754L19.757 26.8099L19.8257 18.4891L22.0779 18.4959L21.9543 31.4903L19.6815 31.5109L15.2731 22.7795L15.2731 31.5451L13.1445 31.5245L13.2612 18.4823L13.2543 18.4891ZM34.0877 18.8107C34.0533 18.8244 33.9847 18.8449 33.9503 18.8586C33.8885 18.8928 33.7649 18.9613 33.7031 18.9955C33.5727 19.0776 33.4422 19.1529 33.3117 19.235C33.1881 19.3171 33.0577 19.406 32.9341 19.4813C30.469 21.1509 29.5214 24.5449 30.6956 27.2615C31.238 28.5137 32.062 29.7044 33.2293 30.4502C34.2868 31.0866 35.5091 31.4767 36.7519 31.3809C36.8 30.676 36.8 29.9644 36.7588 29.2664C34.9597 29.0475 33.2156 27.7816 32.886 25.9272C34.1632 25.7766 35.4679 25.8519 36.7519 25.8724C36.7382 25.195 36.7794 24.5176 36.7313 23.847C35.4404 23.7922 34.1426 23.9223 32.8585 23.7854C33.0783 21.8626 34.9254 20.5898 36.7451 20.3845C36.7931 19.6729 36.7931 18.9613 36.7451 18.2496C35.8181 18.2017 34.9323 18.4754 34.0877 18.8176V18.8107Z" fill="#221D1A"/>
        <path d="M26.4317 2.92867C26.2257 1.72434 27.5304 0.8211 28.6428 1.04691C30.2358 1.24535 31.1354 2.96972 31.0049 4.44776C30.895 5.7342 30.1191 6.81535 29.3569 7.80071C28.1415 7.85545 26.9261 7.81439 25.7107 7.82124C25.7313 7.5749 25.7588 7.32856 25.7931 7.08222C26.2326 6.50059 26.212 5.75472 26.1502 5.07045C27.1321 5.83684 28.6702 5.41943 29.1715 4.30406C29.5835 3.44187 29.0891 2.41546 28.2651 2.0049C28.3475 2.47705 28.526 3.04499 28.1346 3.43503C27.6471 4.05772 26.3974 3.79085 26.418 2.92867H26.4317ZM42.0602 31.1345C42.7125 31.7024 43.5227 32.0377 44.3399 32.3046C43.7356 32.7904 43.3099 33.4952 43.2549 34.2753C42.994 36.7182 43.9485 39.2432 43.1588 41.6381C43.2 41.6997 43.2755 41.816 43.3167 41.8776C43.2481 41.9255 43.1176 42.0282 43.0489 42.0761C42.6438 41.6929 42.2524 41.3028 41.8679 40.9059C42.3966 38.1278 42.3966 35.1512 41.5314 32.4483C41.6894 32.2841 41.8473 32.113 41.9503 31.9077C41.9984 31.6545 42.0258 31.3945 42.0533 31.1413L42.0602 31.1345ZM29.3912 -0.061615L35.3515 0.00681254C37.1643 1.77224 38.9427 3.56504 40.7692 5.31679C39.7049 4.85148 38.5238 4.57093 37.384 4.96781C37.8921 3.87981 37.3359 2.51126 36.1686 2.16912C35.3377 1.85436 34.4725 2.34019 34.0262 3.04499C34.5275 3.07921 35.1386 2.91498 35.5231 3.33239C36.0725 3.82507 35.8459 4.83095 35.1729 5.09098C34.3489 5.43312 33.3945 4.98149 33.0168 4.20142C32.1791 2.7097 31.204 0.567918 29.3912 -0.061615ZM35.7703 9.35401C37.2673 9.14189 38.7985 9.2719 40.2748 9.58667C40.6525 11.051 40.68 12.5975 40.5014 14.0892C39.5882 13.4939 38.5238 13.0423 37.4046 13.186C37.1711 12.9396 36.9308 12.707 36.6905 12.4606C36.8003 11.3453 36.4295 10.2436 35.7703 9.35401ZM44.5665 9.21031L44.7931 9.24453C46.4411 10.9484 48.192 12.5564 49.8538 14.2397C49.7714 16.1831 49.8675 18.1333 49.7988 20.0766C49.3044 18.3522 47.4985 17.7432 46.0359 17.0658C45.1982 16.7031 44.4978 15.8478 44.7587 14.8898C44.8823 14.0345 46.1733 13.7744 46.6677 14.4519C47.0247 14.8351 46.8462 15.3825 46.8325 15.8409C47.9517 15.3688 48.1371 13.7539 47.2994 12.9396C46.7432 12.228 45.7132 12.1732 44.9304 12.5154C45.3355 11.4274 45.1639 10.1957 44.5665 9.21031ZM37.5968 36.6292C38.6337 36.5334 39.6294 36.205 40.5014 35.6302C40.6319 36.8756 40.6319 38.1483 40.3435 39.3732C39.4234 38.4631 38.4895 37.5667 37.5968 36.6292ZM48.398 24.8939C49.071 24.5518 49.5654 23.9633 49.792 23.2448C50.0392 24.2507 49.998 25.3387 49.792 26.3514C49.4898 25.7356 49.0435 25.1676 48.398 24.8939ZM42.019 25.1266C42.7331 25.8998 43.8249 26.1803 44.8549 26.0161C44.1545 26.9673 44.4017 28.4385 45.4797 28.9927C46.3381 29.5059 47.4779 29.0543 47.8762 28.1784C47.1483 28.4521 46.1321 28.2058 46.1183 27.2889C46.0703 25.9477 48.1165 26.0503 48.5697 27.0357C49.4143 28.3837 48.5216 30.2244 47.0453 30.6555C45.2463 31.3261 43.3305 30.3886 42.0464 29.1364C42.0258 27.8021 42.0533 26.4677 42.0258 25.1334L42.019 25.1266ZM42.019 20.583C43.2343 19.6113 44.6763 18.6054 46.3243 18.9339C47.9929 18.9818 49.4624 20.8225 48.7276 22.4237C48.4255 23.5048 46.5166 23.9359 46.1183 22.7453C45.9535 21.7394 47.0453 21.2467 47.8831 21.5546C47.4161 20.6582 46.1183 20.1724 45.2943 20.8977C44.3536 21.5273 44.2025 22.9163 44.8961 23.7785C43.8592 23.5185 42.8018 23.8675 42.0121 24.5586C42.0327 23.2311 41.9984 21.9105 42.0121 20.583H42.019ZM32.44 5.65208C32.8108 6.00106 33.1953 6.37742 33.7103 6.50743C36.4021 7.17118 39.2311 5.75472 41.8816 6.74692C41.9091 6.68534 41.964 6.56217 41.9915 6.50059C42.431 6.95905 42.8773 7.41067 43.3511 7.83492C43.3167 7.88966 43.2481 8.00599 43.2137 8.06073C43.9965 10.4625 43.0627 12.9807 43.2549 15.4304C43.2893 16.2378 43.7425 16.9358 44.3261 17.4627C43.4815 17.6337 42.7468 18.0991 42.0602 18.5986C42.122 18.1127 41.9572 17.6406 41.5589 17.3463C42.4378 14.3971 42.4104 11.1947 41.758 8.19075C38.7436 7.36961 35.4888 7.45857 32.4606 8.21127C32.1997 7.84861 31.7671 7.82124 31.3551 7.82124C31.8014 7.1438 32.2134 6.439 32.4331 5.65208H32.44ZM47.9105 31.7982C48.7757 31.3329 49.5379 30.6008 49.7988 29.6359C49.8675 31.4972 49.7714 33.3584 49.8469 35.2128C48.247 36.8619 46.6059 38.4631 45.0059 40.1053C45.1501 39.1679 45.363 38.2031 44.9716 37.2861C45.7132 37.5872 46.6608 37.5462 47.2307 36.9303C48.1096 36.0681 47.9792 34.4806 46.8531 33.8921C46.8462 34.3506 46.9492 34.8501 46.7089 35.2675C46.3175 35.8081 45.4454 35.7807 44.9922 35.3428C44.5733 34.6927 44.6351 33.7211 45.2531 33.2079C46.0291 32.5509 47.0316 32.2704 47.9105 31.7914V31.7982Z" fill="#4382B7"/>
        <path d="M37.5213 36.5335C38.8191 35.1376 40.1787 33.7895 41.5383 32.4484C42.4035 35.1512 42.4035 38.1278 41.8748 40.906C41.3666 40.3928 40.8448 39.8864 40.3366 39.3732C40.6319 38.1484 40.6319 36.8756 40.4946 35.6302C39.6225 36.205 38.6268 36.5335 37.59 36.6293C37.5694 36.6087 37.535 36.5608 37.5213 36.5335ZM25.7245 -0.0615689L29.3912 -0.0615689L29.8856 0.0889716C31.6916 0.718505 32.1722 2.70975 33.0168 4.20147C33.3876 4.98154 34.3489 5.43316 35.1729 5.09102C35.8459 4.82416 36.0793 3.82511 35.5231 3.33244C35.1386 2.91503 34.5275 3.07925 34.0262 3.04504C34.4725 2.34708 35.3377 1.8544 36.1686 2.16917C37.3428 2.50446 37.8921 3.87986 37.384 4.96785C38.5238 4.57097 39.7049 4.85153 40.7692 5.31683C41.1881 5.69319 41.5864 6.09007 41.9846 6.49379C41.9572 6.55537 41.9022 6.67854 41.8748 6.74013C39.2311 5.74793 36.3952 7.17122 33.7035 6.50063C33.1885 6.37746 32.8108 5.99427 32.4331 5.64529C32.2134 6.4322 31.8014 7.13701 31.3551 7.81444C30.689 7.78707 30.023 7.7597 29.35 7.79391C30.1122 6.80171 30.8882 5.72056 30.998 4.44096C31.1285 2.96293 30.229 1.23855 28.6359 1.04011C27.5304 0.814303 26.2189 1.71755 26.4249 2.92187C26.4043 3.78406 27.654 4.05777 28.1415 3.42824C28.5329 3.0382 28.3544 2.47025 28.272 1.9981C29.096 2.40866 29.5835 3.43508 29.1784 4.29726C28.6771 5.41263 27.1321 5.83004 26.1571 5.06365C26.2189 5.75477 26.2326 6.49379 25.8 7.07542C25.6833 4.69414 25.7588 2.30602 25.7313 -0.0752544L25.7245 -0.0615689ZM32.4606 8.20448C35.4819 7.44493 38.7367 7.36282 41.758 8.18395C42.4103 11.1811 42.4309 14.3835 41.5589 17.3396C40.1444 15.9847 38.7916 14.5682 37.3977 13.186C38.517 13.0355 39.5813 13.4939 40.4946 14.0892C40.6731 12.5975 40.6456 11.0511 40.268 9.58671C38.7985 9.27195 37.2604 9.14193 35.7635 9.35406C36.4227 10.2505 36.7935 11.3453 36.6836 12.4607C35.2828 11.0374 33.9301 9.55934 32.4606 8.20448ZM43.3442 7.82813C43.8386 8.28659 44.3399 8.74505 44.7862 9.24458L44.5596 9.21036C45.157 10.2026 45.3218 11.4274 44.9235 12.5154C45.7063 12.1733 46.7363 12.228 47.2925 12.9397C48.1371 13.7539 47.9448 15.3688 46.8256 15.841C46.8393 15.3825 47.0179 14.8351 46.6608 14.4519C46.1664 13.7745 44.8823 14.0345 44.7519 14.8898C44.4909 15.8478 45.1913 16.7032 46.0291 17.0658C47.4916 17.7433 49.2907 18.3523 49.792 20.0767C49.8538 18.1333 49.7645 16.1831 49.8469 14.2398L49.943 14.363L49.943 35.1033L49.8469 35.2128C49.7714 33.3516 49.8606 31.4904 49.7988 29.636C49.531 30.6008 48.7688 31.333 47.9105 31.7983C47.0316 32.2773 46.0291 32.5578 45.2531 33.2147C44.6351 33.7211 44.5665 34.6996 44.9922 35.3497C45.4523 35.7876 46.3175 35.815 46.7089 35.2744C46.9492 34.857 46.8462 34.3575 46.8531 33.899C47.9792 34.4875 48.1096 36.075 47.2307 36.9372C46.6608 37.553 45.7132 37.5941 44.9716 37.293C45.363 38.2099 45.157 39.1748 45.0059 40.1122C44.4429 40.7007 43.9004 41.3029 43.3236 41.8777C43.2824 41.8161 43.2069 41.6998 43.1657 41.6382C43.9485 39.2432 42.994 36.7182 43.2618 34.2754C43.3167 33.4884 43.7425 32.7905 44.3467 32.3047C43.5296 32.0378 42.7193 31.7025 42.067 31.1345C42.0396 31.3877 42.0121 31.6477 41.964 31.9009C41.9984 30.9772 42.067 30.0534 42.0464 29.1296C43.3305 30.3818 45.2463 31.3193 47.0453 30.6487C48.5216 30.2176 49.4074 28.3769 48.5697 27.0289C48.1165 26.0435 46.0771 25.9409 46.1183 27.2821C46.1321 28.2058 47.1483 28.4453 47.8762 28.1716C47.4779 29.0543 46.3381 29.4991 45.4797 28.9859C44.4017 28.4317 44.1545 26.9605 44.8549 26.0093C43.8317 26.1735 42.7331 25.8998 42.0189 25.1198C42.0121 24.9282 42.0121 24.7434 42.0189 24.5518C42.8086 23.8607 43.8661 23.5117 44.9029 23.7717C44.2094 22.9027 44.3536 21.5205 45.3012 20.8909C46.1252 20.1656 47.423 20.6514 47.8899 21.5478C47.0522 21.2468 45.9604 21.7394 46.1252 22.7385C46.5303 23.9291 48.4392 23.498 48.7345 22.4169C49.4692 20.8157 47.9998 18.975 46.3312 18.9271C44.6763 18.5986 43.2343 19.6045 42.0258 20.5762C42.0189 19.9124 42.0602 19.2487 42.067 18.5849C42.7468 18.0854 43.4884 17.6201 44.333 17.449C43.7425 16.9221 43.2961 16.231 43.2618 15.4167C43.0695 12.967 44.0034 10.4489 43.2206 8.04709C43.2549 7.99235 43.3236 7.87602 43.3579 7.82128L43.3442 7.82813ZM48.398 24.894C49.0504 25.1677 49.4898 25.7356 49.792 26.3515C49.998 25.3387 50.0392 24.2507 49.792 23.2448C49.5654 23.9633 49.071 24.5518 48.398 24.894Z" fill="#A9CBE4"/>
        <path d="M13.2337 37.4709C14.6276 38.7778 15.9872 40.1327 17.3125 41.5149C14.5727 42.2608 11.6338 42.3497 8.83905 41.8297C9.35404 41.3165 9.86217 40.7964 10.3978 40.3106C11.6406 40.5706 12.9316 40.5775 14.1881 40.379C13.529 39.5647 13.1513 38.5178 13.2406 37.4709H13.2337ZM18.4043 42.0213C19.0703 42.0076 19.7295 42.0008 20.3956 42.0213C19.3312 43.2804 18.3768 44.9363 18.8712 46.6402C19.1733 48.1592 20.9586 49.343 22.4281 48.563C23.4032 48.1935 23.7671 46.3938 22.6341 46.0311C21.6316 45.8053 21.0822 46.9481 21.4324 47.776C20.684 47.3381 20.0934 46.4007 20.5535 45.5522C21.0067 44.3068 22.6547 44.0125 23.6504 44.7926C23.3894 43.8072 23.7122 42.7535 24.3988 42.0144C24.6323 42.0076 24.8657 42.0076 25.0992 42.0144C25.7927 42.7603 26.1086 43.8004 25.8545 44.7994C26.8227 44.0331 28.4227 44.3547 28.9239 45.5111C29.384 46.3664 28.8621 47.4134 28.0313 47.8103C28.8141 46.6675 26.9738 45.2305 26.2803 46.5375C25.573 48.4056 28.1961 49.4731 29.5076 48.3714C31.5744 46.7838 30.8466 43.4377 28.9239 42.035C29.8029 42.0487 30.6749 42.035 31.547 42.0555C31.4577 42.0692 31.2723 42.0966 31.183 42.1102C31.6019 42.7945 32.0208 43.4925 32.1924 44.2862C32.6525 43.6567 33.3598 43.2461 34.1426 43.1846C36.6695 42.9519 39.2513 43.8688 41.737 43.0888C41.483 43.5951 41.0641 43.9783 40.6315 44.3273C39.6771 45.1279 38.3381 45.2237 37.1776 44.8816C37.569 45.819 37.2943 47.0918 36.2781 47.4955C35.4197 48.0155 34.2456 47.6529 33.813 46.7565C34.4996 46.8386 35.509 46.7702 35.5708 45.8806C35.7631 44.6626 34.1082 44.2726 33.3323 44.9637C32.2268 45.9696 32.0688 47.605 31.0869 48.7067C30.6406 49.2883 29.947 49.5552 29.3222 49.8905H26.6991C25.9026 49.562 25.0717 49.1104 24.749 48.2619C24.4194 49.1309 23.568 49.5346 22.7783 49.8905H20.1964C18.4867 49.3225 17.6352 47.6871 16.9966 46.1406C16.6601 45.3263 15.9529 44.5121 14.9778 44.6215C14.1675 44.6352 13.6182 45.6137 14.0645 46.298C14.3804 46.8933 15.1357 46.7359 15.6851 46.7496C15.1701 47.8513 13.6114 48.0634 12.7736 47.2081C12.0526 46.6607 12.0114 45.6685 12.3273 44.8884C11.366 45.1758 10.3291 45.1484 9.40898 44.7242L9.45018 44.8816C8.87338 44.2589 8.00132 43.7457 7.69232 42.9793C9.75918 43.8894 12.0526 43.1367 14.2087 43.1367C15.3349 43.0614 16.5709 43.3419 17.3125 44.252C17.5253 43.4583 17.8687 42.7056 18.3768 42.0487L18.4043 42.0213ZM36.4635 37.5393C36.5321 37.6009 36.6077 37.6693 36.6763 37.7377C36.5939 38.6957 36.3124 39.6674 35.6601 40.3996C36.8686 40.6527 38.1389 40.5912 39.3543 40.3927C39.8419 40.8854 40.3363 41.3712 40.8306 41.8639C38.0909 42.384 35.1726 42.2608 32.4808 41.5286C33.7924 40.1943 35.1519 38.8941 36.4635 37.553V37.5393Z" fill="#A5C888"/>
        <path d="M20.3955 42.0213C21.7276 42.0281 23.0666 42.035 24.3987 42.0144C23.7121 42.7535 23.3962 43.8072 23.6503 44.7926C22.6546 44.0125 20.9997 44.3068 20.5534 45.5521C20.0865 46.4006 20.677 47.3381 21.4323 47.776C21.0821 46.9481 21.6315 45.8053 22.634 46.0311C23.7739 46.387 23.4099 48.1934 22.428 48.563C20.9654 49.343 19.1732 48.1524 18.8711 46.6401C18.3767 44.9363 19.3312 43.2872 20.3955 42.0213ZM36.6831 37.7377C37.5826 38.6136 38.4753 39.5032 39.3611 40.3927C38.1457 40.5912 36.8754 40.6596 35.6669 40.3996C36.3192 39.6674 36.6007 38.7026 36.6831 37.7377ZM10.3977 40.3106C11.3796 39.4005 12.2929 38.4152 13.2336 37.4709C13.1512 38.5178 13.522 39.5647 14.1812 40.379C12.9246 40.5775 11.6405 40.5706 10.3908 40.3106H10.3977ZM14.0782 46.2843C13.6319 45.6 14.1743 44.6147 14.9915 44.6078C15.9665 44.4984 16.6738 45.3127 17.0102 46.1269C17.6488 47.6734 18.4934 49.3157 20.2101 49.8768H14.5726C12.8834 48.1934 11.1805 46.5238 9.47755 44.8542L9.43635 44.6968C10.3496 45.1211 11.3933 45.1553 12.3547 44.861C12.0319 45.6411 12.08 46.6333 12.801 47.1807C13.6387 48.0361 15.1975 47.8308 15.7124 46.7223C15.1631 46.7086 14.4009 46.8728 14.0919 46.2706L14.0782 46.2843ZM37.1775 44.8747C38.338 45.2169 39.6701 45.1211 40.6314 44.3205C41.064 43.9715 41.4898 43.5883 41.737 43.0819C39.2444 43.862 36.6694 42.9451 34.1425 43.1777C33.3597 43.2393 32.6455 43.6499 32.1923 44.2794C32.0275 43.4856 31.6018 42.7877 31.183 42.1034C31.2722 42.0897 31.4576 42.0623 31.5469 42.0487C31.9451 42.0623 32.2404 41.7955 32.4807 41.5218C35.1725 42.2539 38.0908 42.3771 40.8306 41.8571C41.27 42.2882 41.7164 42.7261 42.149 43.1709C41.7301 43.6499 41.2975 44.1152 40.8306 44.5463C39.0521 46.3185 37.3286 48.1455 35.5227 49.8836L29.3221 49.8836C29.947 49.5483 30.6405 49.2814 31.0868 48.6998C32.0687 47.5981 32.2267 45.9696 33.3322 44.9568C34.1081 44.2726 35.7561 44.6626 35.5707 45.8738C35.5089 46.7633 34.4995 46.8386 33.8129 46.7496C34.2455 47.646 35.4197 48.0019 36.278 47.4886C37.2942 47.0781 37.5689 45.8122 37.1775 44.8747ZM8.83209 41.8297C11.6199 42.3497 14.5657 42.2608 17.3055 41.5149C17.5733 41.8434 17.9578 42.0897 18.3973 42.0213C17.8892 42.6713 17.5458 43.4241 17.333 44.2247C16.5914 43.3146 15.3554 43.034 14.2293 43.1093C12.0731 43.1093 9.77968 43.862 7.71283 42.9519C8.09049 42.5755 8.46129 42.206 8.83209 41.8297ZM25.0923 42.0144C26.3694 42.035 27.6398 42.035 28.917 42.0281C30.8396 43.4241 31.5606 46.777 29.5006 48.3645C28.196 49.4662 25.5661 48.4056 26.2733 46.5307C26.9668 45.2237 28.8071 46.6607 28.0243 47.8034C28.8552 47.4065 29.377 46.3664 28.917 45.5042C28.4157 44.3478 26.8226 44.0262 25.8476 44.7926C26.1017 43.7936 25.7858 42.7535 25.0923 42.0076V42.0144ZM22.7851 49.8836C23.5747 49.5278 24.4262 49.1241 24.7558 48.255C25.0785 49.1035 25.9094 49.5552 26.7059 49.8836H22.7919H22.7851Z" fill="#5B9E13"/>
        <path d="M23.5483 2.8878C23.7543 1.68348 22.4496 0.780237 21.3372 1.00605C19.7442 1.20449 18.8446 2.92886 18.9751 4.4069C19.085 5.69333 19.8609 6.77449 20.6231 7.75984C21.8385 7.81459 23.0539 7.77353 24.2693 7.78037C24.2487 7.53403 24.2212 7.28769 24.1869 7.04135C23.7474 6.45972 23.768 5.71386 23.8298 5.02959C22.8479 5.79597 21.3098 5.37857 20.8085 4.2632C20.3965 3.40101 20.8909 2.3746 21.7149 1.96403C21.6325 2.43618 21.454 3.00413 21.8454 3.39417C22.3329 4.01686 23.5826 3.74999 23.562 2.8878L23.5483 2.8878ZM7.91983 31.0936C7.2675 31.6616 6.45724 31.9969 5.64011 32.2637C6.24438 32.7496 6.67011 33.4544 6.72504 34.2344C6.98597 36.6773 6.03151 39.2023 6.82117 41.5972C6.77997 41.6588 6.70444 41.7752 6.66324 41.8367C6.73191 41.8846 6.86237 41.9873 6.93104 42.0352C7.33617 41.652 7.72757 41.262 8.1121 40.8651C7.58337 38.0869 7.58337 35.1103 8.44856 32.4074C8.29063 32.2432 8.1327 32.0721 8.0297 31.8669C7.98163 31.6137 7.95417 31.3537 7.9267 31.1005L7.91983 31.0936ZM20.5888 -0.102478L14.6285 -0.0340505C12.8157 1.73138 11.0373 3.52418 9.21076 5.27592C10.2751 4.81062 11.4561 4.53006 12.596 4.92694C12.0879 3.83895 12.6441 2.4704 13.8114 2.12826C14.6423 1.81349 15.5075 2.29933 15.9538 3.00413C15.4525 3.03834 14.8414 2.87412 14.4569 3.29153C13.9075 3.7842 14.1341 4.79009 14.8071 5.05011C15.6311 5.39225 16.5855 4.94063 16.9632 4.16056C17.8009 2.66884 18.776 0.527055 20.5888 -0.102478ZM14.2097 9.31315C12.7127 9.10102 11.1815 9.23104 9.70516 9.5458C9.32749 11.0102 9.30002 12.5566 9.47856 14.0483C10.3918 13.453 11.4561 13.0014 12.5754 13.1451C12.8089 12.8988 13.0492 12.6661 13.2895 12.4198C13.1797 11.3044 13.5505 10.2027 14.2097 9.31315ZM5.41352 9.16945L5.18692 9.20366C3.53893 10.9075 1.78794 12.5156 0.126214 14.1989C0.208614 16.1422 0.112481 18.0924 0.181147 20.0357C0.675545 18.3114 2.48147 17.7024 3.94406 17.0249C4.78179 16.6623 5.48218 15.8069 5.22125 14.8489C5.09765 13.9936 3.80673 13.7336 3.31233 14.411C2.95526 14.7942 3.1338 15.3416 3.14753 15.8001C2.02827 15.3279 1.84287 13.713 2.6806 12.8988C3.2368 12.1871 4.26679 12.1324 5.04958 12.4745C4.64445 11.3865 4.81612 10.1548 5.41352 9.16945ZM12.3831 36.5884C11.3463 36.4926 10.3506 36.1641 9.47856 35.5893C9.34809 36.8347 9.34809 38.1074 9.63649 39.3323C10.5566 38.4222 11.4905 37.5258 12.3831 36.5884ZM1.58194 24.853C0.90901 24.5109 0.414613 23.9224 0.188014 23.2039C-0.0591844 24.2098 -0.0179846 25.2978 0.188014 26.3105C0.490146 25.6947 0.936476 25.1267 1.58194 24.853ZM7.96103 25.0857C7.2469 25.8589 6.15511 26.1395 5.12512 25.9752C5.82551 26.9264 5.57831 28.3976 4.50025 28.9518C3.64193 29.4651 2.50207 29.0134 2.1038 28.1376C2.83166 28.4113 3.84793 28.1649 3.86166 27.248C3.90972 25.9068 1.86347 26.0095 1.41027 26.9948C0.565679 28.3428 1.45834 30.1835 2.93466 30.6146C4.73372 31.2852 6.64951 30.3478 7.93357 29.0955C7.95417 27.7612 7.9267 26.4269 7.95417 25.0925L7.96103 25.0857ZM7.96103 20.5421C6.74564 19.5704 5.30365 18.5645 3.65566 18.893C1.98707 18.9409 0.517612 20.7816 1.25234 22.3828C1.55447 23.464 3.46339 23.8951 3.86166 22.7044C4.02646 21.6985 2.93466 21.2059 2.09694 21.5138C2.56387 20.6174 3.86166 20.1315 4.68565 20.8569C5.62638 21.4864 5.77745 22.8755 5.08392 23.7377C6.12078 23.4776 7.17824 23.8266 7.9679 24.5177C7.9473 23.1902 7.98163 21.8696 7.9679 20.5421H7.96103ZM17.54 5.61122C17.1692 5.9602 16.7846 6.33655 16.2697 6.46656C13.5779 7.13031 10.7489 5.71386 8.09837 6.70606C8.0709 6.64447 8.01597 6.52131 7.9885 6.45972C7.54904 6.91819 7.10271 7.36981 6.62891 7.79406C6.66324 7.8488 6.73191 7.96513 6.76624 8.01987C5.98345 10.4217 6.91731 12.9398 6.72504 15.3895C6.69071 16.197 6.23751 16.8949 5.65385 17.4218C6.49844 17.5929 7.23317 18.0582 7.91983 18.5577C7.85803 18.0719 8.02283 17.5997 8.4211 17.3055C7.54217 14.3563 7.56964 11.1538 8.22196 8.14988C11.2364 7.32875 14.4912 7.41771 17.5194 8.17041C17.7803 7.80774 18.2129 7.78037 18.6249 7.78037C18.1786 7.10294 17.7666 6.39814 17.5468 5.61122H17.54ZM2.06947 31.7574C1.20427 31.2921 0.442079 30.5599 0.181147 29.5951C0.112481 31.4563 0.208614 33.3175 0.133081 35.1719C1.733 36.821 3.37413 38.4222 4.97405 40.0645C4.82985 39.127 4.61699 38.1622 5.00838 37.2453C4.26679 37.5463 3.3192 37.5053 2.74927 36.8894C1.87034 36.0272 2.0008 34.4397 3.12693 33.8513C3.1338 34.3097 3.0308 34.8092 3.27113 35.2266C3.66253 35.7672 4.53459 35.7399 4.98778 35.3019C5.40665 34.6519 5.34485 33.6802 4.72685 33.167C3.95092 32.5101 2.9484 32.2295 2.06947 31.7505V31.7574Z" fill="#D2D0D1"/>
        <path d="M12.4581 36.4924C11.1603 35.0965 9.80075 33.7484 8.44116 32.4073C7.57597 35.1101 7.57597 38.0867 8.1047 40.8649C8.61283 40.3517 9.13469 39.8453 9.64282 39.3321C9.34756 38.1073 9.34756 36.8345 9.48489 35.5891C10.3569 36.1639 11.3526 36.4924 12.3895 36.5882C12.4101 36.5676 12.4444 36.5198 12.4581 36.4924ZM24.255 -0.102665L20.5882 -0.102665L20.0938 0.0478759C18.2879 0.677409 17.8072 2.66865 16.9626 4.16037C16.5918 4.94044 15.6305 5.39207 14.8065 5.04993C14.1336 4.78306 13.9001 3.78402 14.4563 3.29134C14.8409 2.87393 15.452 3.03816 15.9532 3.00395C15.5069 2.30598 14.6417 1.81331 13.8109 2.12807C12.6367 2.46337 12.0873 3.83876 12.5955 4.92676C11.4556 4.52988 10.2746 4.81043 9.21022 5.27574C8.79136 5.65209 8.3931 6.04897 7.99483 6.45269C8.0223 6.51428 8.07723 6.63745 8.1047 6.69903C10.7483 5.70683 13.5843 7.13013 16.276 6.45954C16.791 6.33637 17.1686 5.95317 17.5463 5.60419C17.766 6.39111 18.178 7.09591 18.6244 7.77334C19.2904 7.74597 19.9565 7.7186 20.6294 7.75282C19.8672 6.76062 19.0913 5.67946 18.9814 4.39987C18.851 2.92183 19.7505 1.19746 21.3435 0.999019C22.4491 0.773208 23.7606 1.67645 23.5546 2.88078C23.5752 3.74296 22.3255 4.01667 21.8379 3.38714C21.4465 2.9971 21.6251 2.42915 21.7075 1.957C20.8835 2.36757 20.396 3.39398 20.8011 4.25617C21.3023 5.37154 22.8473 5.78895 23.8224 5.02256C23.7606 5.71368 23.74 6.45269 24.1795 7.03433C24.2962 4.65305 24.2207 2.26493 24.2481 -0.11635L24.255 -0.102665ZM17.5188 8.16338C14.4975 7.40384 11.2427 7.32172 8.22143 8.14285C7.5691 11.14 7.5485 14.3424 8.42056 17.2985C9.83509 15.9436 11.1878 14.5271 12.5817 13.1449C11.4625 12.9944 10.3981 13.4528 9.48489 14.0481C9.30636 12.5564 9.33382 11.01 9.71149 9.54562C11.1809 9.23085 12.7191 9.10084 14.216 9.31296C13.5568 10.2094 13.186 11.3042 13.2959 12.4196C14.6967 10.9963 16.0494 9.51825 17.5188 8.16338ZM6.63524 7.78703C6.14084 8.24549 5.63958 8.70396 5.19325 9.20348L5.41985 9.16927C4.82245 10.1615 4.65765 11.3863 5.05592 12.4743C4.27312 12.1322 3.24313 12.1869 2.68693 12.8986C1.84234 13.7129 2.0346 15.3277 3.15386 15.7999C3.14013 15.3414 2.9616 14.794 3.31866 14.4108C3.81306 13.7334 5.09712 13.9934 5.22758 14.8488C5.48851 15.8067 4.78812 16.6621 3.95039 17.0247C2.4878 17.7022 0.688745 18.3112 0.187482 20.0356L0.0432829 20.8088C0.00208317 21.1783 -0.0528498 21.6025 -0.00478346 21.931C0.00894979 22.41 0.111949 22.7863 0.201215 23.2038C0.427814 23.9222 0.922211 24.5107 1.59514 24.8529C0.94281 25.1266 0.503347 25.6945 0.201215 26.3104C0.0844826 26.5567 0.0295497 27.4668 0.0501495 27.8842L0.0501495 28.2948C0.0432829 28.7327 0.0844826 29.1706 0.201215 29.5949C0.469014 30.5597 1.23121 31.2919 2.08954 31.7572C2.96846 32.2362 3.97099 32.5167 4.74692 33.1736C5.36492 33.68 5.43358 34.6585 5.00785 35.3086C4.54779 35.7465 3.68259 35.7739 3.2912 35.2333C3.05086 34.8159 3.15386 34.3164 3.147 33.8579C2.02087 34.4464 1.8904 36.0339 2.76933 36.8961C3.33926 37.5119 4.28686 37.553 5.02845 37.2519C4.63705 38.1689 4.84305 39.1337 4.99412 40.0711C5.55718 40.6596 6.09964 41.2618 6.67644 41.8366C6.71764 41.775 6.79317 41.6587 6.83437 41.5971C6.05158 39.2021 7.00604 36.6771 6.73824 34.2343C6.68331 33.4474 6.25758 32.7494 5.65331 32.2636C6.47044 31.9967 7.3425 31.5998 8.0017 31.0319L7.9605 29.0885C6.67644 30.3407 4.76065 31.2782 2.9616 30.6076C1.48527 30.1765 0.592613 28.3358 1.43721 26.9878C1.8904 26.0024 3.92979 25.8998 3.88859 27.241C3.87486 28.1647 2.8586 28.4042 2.13074 28.1305C2.529 29.0132 3.66886 29.458 4.52719 28.9448C5.60525 28.3906 5.85245 26.9194 5.15205 25.9682C6.17518 26.1325 7.27384 25.8587 7.98796 25.0787C7.99483 24.8871 7.99483 24.7023 7.98796 24.5107C7.1983 23.8196 6.14084 23.4706 5.10398 23.7306C5.79751 22.8616 5.65331 21.4794 4.70572 20.8498C3.88173 20.1245 2.58393 20.6103 2.117 21.5067C2.95473 21.2057 4.04652 21.6983 3.88173 22.6974C3.47659 23.888 1.56767 23.4569 1.27241 22.3758C0.53768 20.7746 2.00714 18.9339 3.67573 18.886C5.33058 18.5575 6.77257 19.5634 7.9811 20.5351C7.98796 19.8713 7.94677 19.2076 7.9399 18.5438C7.2601 18.0443 6.51851 17.579 5.67391 17.4079C6.26444 16.881 6.71077 16.1899 6.74511 15.3756C6.93737 12.9259 6.00351 10.4078 6.78631 8.006C6.75197 7.95126 6.68331 7.83493 6.64897 7.78019L6.63524 7.78703Z" fill="#FEFEFE"/>
    </g>
    <defs>
        <clipPath id="clip0_2968_373">
            <rect width="50" height="50" fill="white"/>
        </clipPath>
    </defs>
</svg>
